<svg width="24" height="24" viewBox="0 0 24 24" fill="none" xmlns="http://www.w3.org/2000/svg">
<g filter="url(#filter0_ig_2047_634)">
<path d="M3.35685 5.15285L0.594316 13.8351C0.334796 14.6507 0.623068 15.5411 1.31138 16.0499L10.5948 22.9115C11.2407 23.3889 12.1096 23.4336 12.801 23.025L21.6778 17.7797C22.2867 17.4198 22.6603 16.7651 22.6603 16.0578V8.52751C22.6603 7.99708 22.4496 7.48837 22.0745 7.11329L16.0471 1.08585C15.5048 0.543568 14.7002 0.35913 13.9758 0.611075L4.60566 3.87027C4.01061 4.07724 3.54787 4.5525 3.35685 5.15285Z" fill="#FFB132"/>
<path d="M3.35685 5.15285L0.594316 13.8351C0.334796 14.6507 0.623068 15.5411 1.31138 16.0499L10.5948 22.9115C11.2407 23.3889 12.1096 23.4336 12.801 23.025L21.6778 17.7797C22.2867 17.4198 22.6603 16.7651 22.6603 16.0578V8.52751C22.6603 7.99708 22.4496 7.48837 22.0745 7.11329L16.0471 1.08585C15.5048 0.543568 14.7002 0.35913 13.9758 0.611075L4.60566 3.87027C4.01061 4.07724 3.54787 4.5525 3.35685 5.15285Z" stroke="white" stroke-opacity="0.62"/>
</g>
<path d="M18.0213 13.5932C18.0213 15.648 14.412 16.9417 12.2544 16.9417C8.9059 16.9417 7.04561 12.8576 7.04561 10.8028C7.04561 8.74795 11.027 6.33807 13.1846 6.33807C15.3421 6.33807 18.0213 11.5384 18.0213 13.5932Z" fill="white"/>
<defs>
<filter id="filter0_ig_2047_634" x="0" y="0" width="23.1603" height="27.8032" filterUnits="userSpaceOnUse" color-interpolation-filters="sRGB">
<feFlood flood-opacity="0" result="BackgroundImageFix"/>
<feBlend mode="normal" in="SourceGraphic" in2="BackgroundImageFix" result="shape"/>
<feColorMatrix in="SourceAlpha" type="matrix" values="0 0 0 0 0 0 0 0 0 0 0 0 0 0 0 0 0 0 127 0" result="hardAlpha"/>
<feOffset dy="4"/>
<feGaussianBlur stdDeviation="2"/>
<feComposite in2="hardAlpha" operator="arithmetic" k2="-1" k3="1"/>
<feColorMatrix type="matrix" values="0 0 0 0 1 0 0 0 0 1 0 0 0 0 1 0 0 0 0.34 0"/>
<feBlend mode="normal" in2="shape" result="effect1_innerShadow_2047_634"/>
<feTurbulence type="fractalNoise" baseFrequency="0.99900001287460327 0.99900001287460327" numOctaves="3" seed="4526" />
<feDisplacementMap in="effect1_innerShadow_2047_634" scale="0" xChannelSelector="R" yChannelSelector="G" result="displacedImage" width="100%" height="100%" />
<feMerge result="effect2_texture_2047_634">
<feMergeNode in="displacedImage"/>
</feMerge>
</filter>
</defs>
</svg>
